<svg width="196" height="97" viewBox="0 0 196 97" fill="none" xmlns="http://www.w3.org/2000/svg">
<g clip-path="url(#clip0_521_3)">
<path d="M23.69 0C28.373 0.00197763 32.9503 1.39247 36.8432 3.99566C40.736 6.59885 43.7696 10.2979 45.5603 14.625C47.3511 18.9521 47.8186 23.7131 46.9038 28.3059C45.9889 32.8987 43.7329 37.1171 40.4208 40.4278C37.1087 43.7385 32.8893 45.9928 28.2961 46.9057C23.7029 47.8186 18.9421 47.3491 14.6157 45.5565C10.2894 43.7639 6.59166 40.7288 3.99011 36.8349C1.38856 32.9409 4.17575e-07 28.363 0 23.68C0.00265143 17.3988 2.49973 11.3757 6.94217 6.9351C11.3846 2.49453 17.4088 -5.5961e-07 23.69 0Z" fill="#141414"/>
<path d="M73.08 0C77.7654 0 82.3457 1.38939 86.2415 3.99248C90.1373 6.59558 93.1737 10.2954 94.9667 14.6242C96.7597 18.953 97.2289 23.7163 96.3148 28.3117C95.4007 32.9071 93.1445 37.1283 89.8314 40.4414C86.5183 43.7545 82.2971 46.0107 77.7017 46.9248C73.1063 47.8389 68.343 47.3697 64.0142 45.5767C59.6854 43.7837 55.9856 40.7473 53.3825 36.8515C50.7794 32.9557 49.39 28.3754 49.39 23.69C49.3926 17.4078 51.8894 11.3837 56.3316 6.94157C60.7737 2.4994 66.7978 0.00265014 73.08 0Z" fill="#141414"/>
<path d="M171.87 0C176.555 0 181.136 1.38939 185.031 3.99248C188.927 6.59558 191.964 10.2954 193.757 14.6242C195.55 18.953 196.019 23.7163 195.105 28.3117C194.191 32.9071 191.934 37.1283 188.621 40.4414C185.308 43.7545 181.087 46.0107 176.492 46.9248C171.896 47.8389 167.133 47.3697 162.804 45.5767C158.475 43.7837 154.776 40.7473 152.172 36.8515C149.569 32.9557 148.18 28.3754 148.18 23.69C148.18 17.407 150.676 11.3814 155.119 6.93864C159.561 2.4959 165.587 0 171.87 0Z" fill="#141414"/>
<path d="M122.47 2.11157e-06C127.156 -0.00197588 131.737 1.38574 135.634 3.98762C139.531 6.58951 142.569 10.2887 144.364 14.6173C146.158 18.9459 146.629 23.7095 145.716 28.3056C144.803 32.9016 142.548 37.1237 139.235 40.4378C135.922 43.7519 131.701 46.0092 127.105 46.9241C122.51 47.839 117.746 47.3704 113.417 45.5777C109.087 43.7849 105.387 40.7485 102.783 36.8525C100.18 32.9565 98.79 28.3759 98.79 23.69C98.7927 17.4096 101.288 11.387 105.728 6.9451C110.168 2.50323 116.19 0.0053015 122.47 2.11157e-06Z" fill="#141414"/>
<path d="M23.69 49.38C28.373 49.382 32.9503 50.7725 36.8432 53.3757C40.736 55.9789 43.7696 59.6779 45.5603 64.005C47.3511 68.3321 47.8186 73.0931 46.9038 77.6859C45.9889 82.2787 43.7329 86.4971 40.4208 89.8078C37.1087 93.1185 32.8893 95.3728 28.2961 96.2857C23.7029 97.1986 18.9421 96.7291 14.6157 94.9365C10.2894 93.1439 6.59166 90.1088 3.99011 86.2149C1.38856 82.3209 4.17575e-07 77.743 0 73.06C-2.77359e-07 69.9495 0.612832 66.8694 1.80349 63.9958C2.99415 61.1221 4.7393 58.5112 6.93925 56.3122C9.1392 54.1132 11.7508 52.3691 14.625 51.1797C17.4991 49.9902 20.5795 49.3787 23.69 49.38Z" fill="#39B54A"/>
<path d="M73.08 49.37C77.7654 49.37 82.3457 50.7594 86.2415 53.3625C90.1373 55.9656 93.1737 59.6654 94.9667 63.9942C96.7597 68.323 97.2289 73.0863 96.3148 77.6817C95.4007 82.2771 93.1445 86.4983 89.8314 89.8114C86.5183 93.1245 82.2971 95.3807 77.7017 96.2948C73.1063 97.2089 68.343 96.7397 64.0142 94.9467C59.6854 93.1537 55.9856 90.1173 53.3825 86.2215C50.7794 82.3257 49.39 77.7454 49.39 73.06C49.3926 66.7778 51.8894 60.7537 56.3316 56.3116C60.7737 51.8694 66.7978 49.3726 73.08 49.37Z" fill="#C1272D"/>
<path d="M171.87 49.37C176.555 49.37 181.136 50.7594 185.031 53.3625C188.927 55.9656 191.964 59.6654 193.757 63.9942C195.55 68.323 196.019 73.0863 195.105 77.6817C194.191 82.2771 191.934 86.4983 188.621 89.8114C185.308 93.1245 181.087 95.3807 176.492 96.2948C171.896 97.2089 167.133 96.7397 162.804 94.9467C158.475 93.1537 154.776 90.1173 152.172 86.2215C149.569 82.3257 148.18 77.7454 148.18 73.06C148.183 66.7778 150.679 60.7537 155.122 56.3116C159.564 51.8694 165.588 49.3726 171.87 49.37Z" fill="#FCEE21"/>
<path d="M122.47 49.37C127.156 49.368 131.737 50.7557 135.634 53.3576C139.531 55.9595 142.569 59.6587 144.364 63.9873C146.158 68.3159 146.629 73.0795 145.716 77.6756C144.803 82.2716 142.548 86.4937 139.235 89.8078C135.922 93.1219 131.701 95.3792 127.105 96.2941C122.51 97.209 117.746 96.7404 113.417 94.9477C109.087 93.1549 105.387 90.1185 102.783 86.2225C100.18 82.3265 98.79 77.7459 98.79 73.06C98.7927 66.7796 101.288 60.757 105.728 56.3151C110.168 51.8732 116.19 49.3753 122.47 49.37Z" fill="#0071BC"/>
</g>
<defs>
<clipPath id="clip0_521_3">
<rect width="195.57" height="96.74" fill="white"/>
</clipPath>
</defs>
</svg>
