<svg width="196" height="97" viewBox="0 0 196 97" fill="none" xmlns="http://www.w3.org/2000/svg">
<g clip-path="url(#clip0_521_3)">
<path d="M23.69 0C28.373 0.00197763 32.9503 1.39247 36.8432 3.99566C40.736 6.59885 43.7696 10.2979 45.5603 14.625C47.3511 18.9521 47.8186 23.7131 46.9038 28.3059C45.9889 32.8987 43.7329 37.1171 40.4208 40.4278C37.1086 43.7385 32.8893 45.9928 28.2961 46.9057C23.7029 47.8186 18.9421 47.3491 14.6157 45.5565C10.2894 43.7639 6.59166 40.7288 3.99011 36.8349C1.38856 32.9409 4.17575e-07 28.363 0 23.68C0.00265143 17.3988 2.49973 11.3757 6.94217 6.9351C11.3846 2.49453 17.4088 -5.5961e-07 23.69 0Z" fill="#141414"/>
<path d="M73.08 0C77.7654 0 82.3457 1.38939 86.2415 3.99248C90.1373 6.59558 93.1737 10.2954 94.9667 14.6242C96.7597 18.953 97.2289 23.7163 96.3148 28.3117C95.4007 32.9071 93.1445 37.1283 89.8314 40.4414C86.5183 43.7545 82.2971 46.0107 77.7017 46.9248C73.1063 47.8389 68.343 47.3697 64.0142 45.5767C59.6854 43.7837 55.9856 40.7473 53.3825 36.8515C50.7794 32.9557 49.39 28.3754 49.39 23.69C49.3926 17.4078 51.8894 11.3837 56.3316 6.94157C60.7737 2.4994 66.7978 0.00265014 73.08 0Z" fill="#141414"/>
<path d="M171.87 0C176.555 0 181.136 1.38939 185.031 3.99248C188.927 6.59558 191.964 10.2954 193.757 14.6242C195.55 18.953 196.019 23.7163 195.105 28.3117C194.191 32.9071 191.934 37.1283 188.621 40.4414C185.308 43.7545 181.087 46.0107 176.492 46.9248C171.896 47.8389 167.133 47.3697 162.804 45.5767C158.475 43.7837 154.776 40.7473 152.172 36.8515C149.569 32.9557 148.18 28.3754 148.18 23.69C148.18 17.407 150.676 11.3814 155.119 6.93864C159.561 2.4959 165.587 0 171.87 0Z" fill="#141414"/>
<path d="M122.47 2.11157e-06C127.156 -0.00197588 131.737 1.38574 135.634 3.98762C139.531 6.58951 142.569 10.2887 144.364 14.6173C146.158 18.9459 146.629 23.7095 145.716 28.3056C144.803 32.9016 142.548 37.1237 139.235 40.4378C135.922 43.7519 131.701 46.0092 127.105 46.9241C122.51 47.839 117.746 47.3704 113.417 45.5777C109.087 43.7849 105.387 40.7485 102.783 36.8525C100.18 32.9565 98.79 28.3759 98.79 23.69C98.7927 17.4096 101.288 11.387 105.728 6.9451C110.168 2.50323 116.19 0.0053015 122.47 2.11157e-06Z" fill="#141414"/>
<path d="M23.69 49.38C28.373 49.382 32.9503 50.7725 36.8432 53.3757C40.736 55.9789 43.7696 59.6779 45.5603 64.005C47.3511 68.3321 47.8186 73.0931 46.9038 77.6859C45.9889 82.2787 43.7329 86.4971 40.4208 89.8078C37.1086 93.1185 32.8893 95.3728 28.2961 96.2857C23.7029 97.1986 18.9421 96.7291 14.6157 94.9365C10.2894 93.1439 6.59166 90.1088 3.99011 86.2149C1.38856 82.3209 4.17575e-07 77.743 0 73.06C-2.77359e-07 69.9495 0.612832 66.8694 1.80349 63.9958C2.99415 61.1221 4.7393 58.5112 6.93925 56.3122C9.1392 54.1132 11.7508 52.3691 14.625 51.1797C17.4991 49.9902 20.5795 49.3787 23.69 49.38Z" fill="white"/>
<path d="M32.45 88.21L29.67 80.55H17.54L14.9 88.21H9.42L20.88 57.9H26.47L38 88.21H32.45ZM23.66 62.46H23.53C23.4526 63.1965 23.3018 63.9235 23.08 64.63L18.94 76.31H28.24L24.07 64.63C23.865 63.9213 23.7278 63.1947 23.66 62.46Z" fill="#39B54A"/>
<path d="M73.08 49.37C77.7654 49.37 82.3457 50.7594 86.2415 53.3625C90.1373 55.9656 93.1737 59.6654 94.9667 63.9942C96.7597 68.323 97.2289 73.0863 96.3148 77.6817C95.4007 82.2771 93.1445 86.4983 89.8314 89.8114C86.5183 93.1245 82.2971 95.3807 77.7017 96.2948C73.1063 97.2089 68.343 96.7397 64.0142 94.9467C59.6854 93.1537 55.9856 90.1173 53.3825 86.2215C50.7794 82.3257 49.39 77.7454 49.39 73.06C49.3926 66.7778 51.8894 60.7537 56.3316 56.3116C60.7737 51.8694 66.7978 49.3726 73.08 49.37Z" fill="white"/>
<path d="M83.29 79.38C83.3265 80.5988 83.081 81.8095 82.5728 82.9179C82.0646 84.0263 81.3073 85.0023 80.36 85.77C78.2145 87.4642 75.5312 88.3303 72.8 88.21H62.89V57.9H72.46C74.8936 57.7755 77.3026 58.4382 79.33 59.79C80.1378 60.3643 80.7907 61.1297 81.2304 62.0179C81.6702 62.9061 81.883 63.8895 81.85 64.88C81.8726 66.4575 81.3418 67.9931 80.35 69.22C79.3284 70.5061 77.9296 71.4398 76.35 71.89V72C78.2702 72.1538 80.0705 72.9954 81.42 74.37C82.6661 75.7364 83.3361 77.5313 83.29 79.38ZM76.52 65.84C76.5429 65.3017 76.4337 64.766 76.2018 64.2797C75.97 63.7933 75.6226 63.3711 75.19 63.05C73.9923 62.3107 72.5947 61.9613 71.19 62.05H67.93V70.43H71.16C72.5948 70.5283 74.0163 70.1018 75.16 69.23C75.6233 68.8007 75.9856 68.274 76.2208 67.6878C76.456 67.1016 76.5582 66.4705 76.52 65.84ZM78 79.25C78.0311 78.5994 77.9067 77.9507 77.6372 77.3576C77.3676 76.7646 76.9607 76.2444 76.45 75.84C75.0657 74.9326 73.4207 74.5073 71.77 74.63H67.93V84.05H72.17C73.6948 84.1366 75.1998 83.6716 76.41 82.74C76.9282 82.322 77.3418 81.7889 77.6178 81.1831C77.8938 80.5772 78.0247 79.9153 78 79.25Z" fill="#C1272D"/>
<path d="M171.87 49.37C176.555 49.37 181.136 50.7594 185.031 53.3625C188.927 55.9656 191.964 59.6654 193.757 63.9942C195.55 68.323 196.019 73.0863 195.105 77.6817C194.191 82.2771 191.934 86.4983 188.621 89.8114C185.308 93.1245 181.087 95.3807 176.492 96.2948C171.896 97.2089 167.133 96.7397 162.804 94.9467C158.475 93.1537 154.776 90.1173 152.172 86.2215C149.569 82.3257 148.18 77.7454 148.18 73.06C148.183 66.7778 150.679 60.7537 155.122 56.3116C159.564 51.8694 165.588 49.3726 171.87 49.37Z" fill="white"/>
<path d="M174.27 77.22V88.22H169.27V77.34L159.42 57.91H165.14L171.24 70.55C171.422 70.9084 171.57 71.2834 171.68 71.67C171.78 72.01 171.85 72.28 171.93 72.5C172.081 71.8406 172.312 71.2025 172.62 70.6L179 57.91H184.31L174.27 77.22Z" fill="#FCEE21"/>
<path d="M122.47 49.37C127.156 49.368 131.737 50.7557 135.634 53.3576C139.531 55.9595 142.569 59.6587 144.364 63.9873C146.158 68.3159 146.629 73.0795 145.716 77.6756C144.803 82.2716 142.548 86.4937 139.235 89.8078C135.922 93.1219 131.701 95.3792 127.105 96.2941C122.51 97.209 117.746 96.7404 113.417 94.9477C109.087 93.1549 105.387 90.1185 102.783 86.2225C100.18 82.3265 98.79 77.7459 98.79 73.06C98.7927 66.7796 101.288 60.757 105.728 56.3151C110.168 51.8732 116.19 49.3753 122.47 49.37Z" fill="white"/>
<path d="M129.59 88.21L123.18 77.21C123.06 76.9617 122.959 76.7042 122.88 76.44C122.824 76.182 122.75 75.9281 122.66 75.68H122.57C122.46 75.96 122.38 76.2 122.3 76.46C122.211 76.7187 122.101 76.9696 121.97 77.21L115.44 88.21H109.32L119.46 73L110.2 57.9H116.38L121.79 67.9C122.21 68.6122 122.545 69.3706 122.79 70.16H122.87C123.17 69.37 123.4 68.85 123.52 68.6C123.64 68.35 125.73 64.81 129.79 57.94H135.47L126.01 72.94L135.59 88.23L129.59 88.21Z" fill="#0071BC"/>
</g>
<defs>
<clipPath id="clip0_521_3">
<rect width="195.57" height="96.74" fill="white"/>
</clipPath>
</defs>
</svg>
