<svg width="68" height="34" viewBox="0 0 68 34" fill="none" xmlns="http://www.w3.org/2000/svg">
<g clip-path="url(#clip0_523_11)">
<path d="M66.91 16.6C66.91 19.7843 65.9658 22.8971 64.1967 25.5447C62.4276 28.1923 59.9131 30.2559 56.9712 31.4745C54.0293 32.693 50.7921 33.0119 47.669 32.3906C44.546 31.7694 41.6772 30.236 39.4256 27.9844C37.174 25.7328 35.6406 22.864 35.0194 19.741C34.3981 16.6179 34.717 13.3807 35.9355 10.4388C37.1541 7.49691 39.2177 4.98243 41.8653 3.21334C44.5129 1.44425 47.6257 0.5 50.81 0.5C55.0792 0.502649 59.1727 2.19975 62.1915 5.21851C65.2103 8.23727 66.9074 12.3308 66.91 16.6Z" fill="white" stroke="#1A1615" stroke-miterlimit="10"/>
<path d="M57.97 11.98H43.61V13.53H57.97V11.98Z" fill="white"/>
<path d="M57.97 15.9H43.61V17.45H57.97V15.9Z" fill="white"/>
<path d="M57.97 19.71H43.61V21.24H57.97V19.71Z" fill="white"/>
<path d="M32.71 16.6C32.712 19.7867 31.7688 22.9024 29.9998 25.553C28.2309 28.2036 25.7155 30.27 22.772 31.4908C19.8284 32.7117 16.5889 33.0322 13.4632 32.4117C10.3375 31.7912 7.46608 30.2577 5.21205 28.005C2.95803 25.7524 1.42271 22.8819 0.800287 19.7566C0.177868 16.6313 0.496315 13.3916 1.71535 10.4473C2.93438 7.50299 4.99923 4.98637 7.64873 3.21573C10.2982 1.4451 13.4133 0.500013 16.6 0.500012C18.7155 0.497382 20.8107 0.911953 22.7658 1.72C24.7209 2.52805 26.4975 3.7137 27.9938 5.20912C29.4902 6.70454 30.6769 8.48035 31.4862 10.4349C32.2954 12.3895 32.7113 14.4845 32.71 16.6Z" fill="white" stroke="#1A1615" stroke-miterlimit="10"/>
</g>
<defs>
<clipPath id="clip0_523_11">
<rect width="67.41" height="33.21" fill="white"/>
</clipPath>
</defs>
</svg>
