<svg width="169" height="84" viewBox="0 0 169 84" fill="none" xmlns="http://www.w3.org/2000/svg">
<g clip-path="url(#clip0_517_2)">
<path d="M168.77 41.7C168.768 49.9447 166.322 58.0036 161.74 64.858C157.158 71.7123 150.647 77.0543 143.029 80.2085C135.412 83.3626 127.03 84.1874 118.944 82.5785C110.858 80.9695 103.431 76.9991 97.6007 71.1693C91.7709 65.3394 87.8005 57.9119 86.1916 49.8258C84.5826 41.7396 85.4074 33.358 88.5615 25.7406C91.7157 18.1231 97.0577 11.6119 103.912 7.0302C110.766 2.44849 118.825 0.00198265 127.07 4.80121e-06C132.547 -0.00262388 137.971 1.07418 143.031 3.16887C148.091 5.26356 152.689 8.33506 156.562 12.2078C160.435 16.0805 163.506 20.6785 165.601 25.739C167.696 30.7995 168.773 36.2231 168.77 41.7Z" fill="#1A1A1A"/>
<path d="M127.07 0H125.81H125.06L126.06 20C126.407 20 126.74 20 127.06 20V0H127.07ZM123.07 0.19H122.91H122.76C122.2 0.25 121.64 0.32 121.09 0.4L123.93 20.19C124.28 20.19 124.62 20.1 124.93 20.07L123.07 0.19ZM119.12 0.76H119.03H118.6C118.12 0.86 117.6 0.96 117.16 1.08L121.9 20.51C122.23 20.43 122.57 20.35 122.9 20.29L119.12 0.76ZM115.23 1.76L114.43 2H114.37H114.31L113.38 2.31L119.97 21.19C120.29 21.08 120.62 20.97 120.97 20.88L115.23 1.71V1.76ZM111.46 3C110.84 3.25 110.23 3.52 109.62 3.8L118 22C118.32 21.85 118.63 21.71 119 21.58L111.46 3ZM107.83 4.7C107.24 5.01 106.65 5.33 106.08 5.7L116.17 22.98C116.46 22.8 116.77 22.63 117.07 22.47L107.83 4.7ZM104.38 6.7C103.82 7.06 103.27 7.43 102.72 7.83L114.42 24.05L115.28 23.46L104.38 6.72V6.7ZM101.13 9.03C100.61 9.45 100.1 9.88 99.6 10.32L112.78 25.32C113.05 25.09 113.31 24.87 113.59 24.65L101.13 9.05V9.03ZM98.13 11.67L97.29 12.51L96.86 12.96L111.42 26.67C111.66 26.42 111.91 26.17 112.16 25.93L98.12 11.69L98.13 11.67ZM95.38 14.6C95 15.05 94.64 15.5 94.28 15.96L110.08 28.22C110.29 27.95 110.52 27.68 110.74 27.41L95.54 14.41L95.38 14.6ZM92.93 17.76L92.78 17.99C92.46 18.45 92.15 18.91 91.85 19.38L108.75 30.08C108.94 29.79 109.13 29.49 109.33 29.21L92.93 17.76ZM90.79 21.14L90.34 21.95C90.17 22.26 90.01 22.57 89.85 22.88L107.7 31.88C107.85 31.57 108.02 31.26 108.19 30.96L90.79 21.09V21.14ZM89 24.71L88.8 25.16V25.22V25.28C88.62 25.7 88.45 26.12 88.28 26.55L106.91 33.81C107.04 33.49 107.17 33.17 107.31 32.81L89 24.71ZM87.55 28.43C87.46 28.7 87.37 28.97 87.29 29.24C87.23 29.42 87.18 29.6 87.13 29.79L106.37 35.22C106.47 34.89 106.57 34.56 106.68 34.22L87.68 27.87L87.55 28.43ZM86.46 32.28C86.34 32.8133 86.23 33.3433 86.13 33.87C86.13 34 86.08 34.12 86.06 34.24L105.74 37.79C105.8 37.45 105.87 37.11 105.95 36.79L86.46 32.29V32.28ZM85.75 36.22L85.6 37.5L85.54 38.09L105.47 39.75C105.47 39.4 105.54 39.05 105.59 38.75L85.75 36.15V36.22ZM85.42 40.22C85.42 40.54 85.42 40.86 85.42 41.22V41.28V41.52V41.92L105.42 41.69V41.7C105.42 41.44 105.42 41.17 105.42 40.91L85.42 40.2V40.22ZM105.42 43.04L85.42 44.22C85.42 44.79 85.5 45.36 85.55 45.92C85.55 45.98 85.55 46.04 85.55 46.1L105.44 43.97C105.44 43.63 105.37 43.28 105.35 42.97L105.42 43.04ZM105.65 45.12L85.89 48.18C85.98 48.71 86.07 49.23 86.17 49.75C86.17 49.8 86.17 49.86 86.17 49.92L105.76 45.92C105.693 45.58 105.633 45.2467 105.58 44.92L105.65 45.12ZM106.06 47.12L86.69 52.12C86.86 52.77 87.04 53.41 87.23 54.05L106.34 48.15C106.24 47.82 106.15 47.48 106.06 47.15V47.12ZM106.67 49.12L87.87 55.93C88.1 56.56 88.34 57.18 88.6 57.8L107.05 50.08C106.92 49.76 106.79 49.44 106.67 49.08V49.12ZM107.47 51.02L89.41 59.6C89.41 59.67 89.48 59.75 89.52 59.82C89.69 60.19 89.88 60.55 90.07 60.92L90.24 61.24L107.87 51.79C107.71 51.48 107.55 51.17 107.4 50.86L107.47 51.02ZM108.47 52.85L91.3 63.12L91.6 63.6C91.84 63.98 92.09 64.37 92.34 64.74L109 53.71C108.81 53.42 108.62 53.13 108.44 52.83L108.47 52.85ZM109.63 54.58L93.52 66.45L93.75 66.75C93.98 67.05 94.22 67.35 94.46 67.64L109.96 55C109.74 54.73 109.52 54.45 109.32 54.17L109.63 54.58ZM110.95 56.2L96.05 69.55C96.5 70.04 96.95 70.55 97.42 71L111.65 56.94C111.4 56.7 111.16 56.44 110.93 56.18L110.95 56.2ZM112.42 57.69L98.86 72.39L99.62 73.07H99.68L100.35 73.64L113.17 58.29C112.9 58.07 112.63 57.83 112.38 57.6L112.42 57.69ZM114 59L101.93 75L102.86 75.68L103.55 76.16L114.85 59.66L114 59ZM115.72 60.18L105.23 77.18L105.33 77.25C105.83 77.55 106.33 77.85 106.85 78.13L116.51 60.62L115.61 60.1L115.72 60.18ZM117.54 61.18L108.73 79.18L109.07 79.35H109.23C109.65 79.55 110.07 79.74 110.5 79.92L118.43 61.56C118.12 61.43 117.8 61.28 117.49 61.13L117.54 61.18ZM119.44 62L112.44 80.72C113.07 80.96 113.69 81.17 114.33 81.38L120.46 62.38L119.46 62.04L119.44 62ZM121.44 62.63L116.21 82L116.45 82.06H116.65C117.15 82.1933 117.65 82.3133 118.15 82.42L122.41 62.87C122.07 62.8 121.74 62.72 121.41 62.63H121.44ZM123.44 63.07L120.13 82.8C120.63 82.88 121.13 82.96 121.64 83.02L122.11 83.08L124.47 63.22C124.12 63.22 123.78 63.13 123.47 63.07H123.44ZM125.51 63.32L124.1 83.32H124.5H124.59H125.59H126.13L126.6 63.32C126.25 63.32 125.89 63.32 125.6 63.32H125.51ZM128.67 63.32L127.67 63.37L128.14 83.37H128.71H128.83L130.02 83.31H130.14L128.72 63.31L128.67 63.32ZM130.74 63.07C130.4 63.13 130.05 63.18 129.74 63.22L132.11 83.08C132.73 83 133.34 82.92 133.94 82.82H134.09L130.77 63.09L130.74 63.07ZM132.74 62.63C132.41 62.72 132.07 62.8 131.74 62.87L136 82.42H136.22H136.42L137.18 82.24H137.54L138 82L132.8 62.68L132.74 62.63ZM134.74 62L133.74 62.34L139.88 81.34L140.8 81.03H141L141.77 80.74L134.77 62.03L134.74 62ZM136.64 61.17L135.7 61.61L143.62 80C143.97 79.85 144.32 79.7 144.62 79.53H144.78L145.39 79.24L136.58 61.24L136.64 61.17ZM138.46 60.17C138.16 60.35 137.86 60.53 137.56 60.69L147.23 78.2L147.41 78.1H147.51C147.98 77.84 148.43 77.57 148.88 77.3L138.39 60.3L138.46 60.17ZM140.16 59C139.88 59.21 139.6 59.42 139.31 59.61L150.61 76.11C150.86 75.94 151.12 75.76 151.36 75.58H151.51L152.11 75.13L140.16 59ZM141.76 57.66C141.51 57.9 141.24 58.13 140.98 58.35L153.8 73.7H154.14C154.48 73.42 154.8 73.13 155.14 72.84H155.2L141.76 57.66ZM143.23 56.17C143 56.43 142.76 56.69 142.51 56.94L156.74 70.94C157.05 70.62 157.36 70.3 157.66 69.94L157.98 69.59L143.23 56.17ZM144.55 54.56C144.35 54.83 144.13 55.11 143.91 55.38L159.41 68C159.61 67.74 159.82 67.48 160.02 67.21L160.38 66.74L144.55 54.56ZM145.71 52.82C145.53 53.12 145.34 53.41 145.15 53.7L161.79 64.8L161.93 64.59C162.24 64.12 162.54 63.64 162.83 63.16L145.71 52.82ZM146.71 50.99C146.56 51.31 146.4 51.62 146.24 51.92L163.87 61.37L164.14 60.86C164.28 60.58 164.42 60.31 164.55 60.03C164.55 59.92 164.65 59.81 164.71 59.7L146.69 51L146.71 50.99ZM147.51 49.09C147.39 49.41 147.26 49.73 147.13 50.09L165.58 57.8L165.87 57.11C166.01 56.75 166.14 56.4 166.27 56.05L147.47 49.24L147.51 49.09ZM148.11 47.09C148.03 47.42 147.93 47.76 147.83 48.09L166.93 54L167.05 53.59L167.38 52.38L148 47.38L148.11 47.09ZM148.53 45.09C148.53 45.43 148.41 45.77 148.35 46.09L167.94 50.09C168.05 49.52 168.16 48.94 168.25 48.37C168.25 48.28 168.25 48.2 168.25 48.12L148.49 45.05L148.53 45.09ZM148.75 43.01C148.75 43.36 148.75 43.71 148.67 44.01L168.55 46.14C168.55 45.9 168.6 45.67 168.62 45.43C168.62 45.05 168.68 44.67 168.7 44.29V44.23L148.7 43.05L148.75 43.01ZM168.75 40.19L148.75 40.9C148.75 41.17 148.75 41.43 148.75 41.7V42L168.75 42.23V41.8V41.71V41.54V41.2C168.75 41.05 168.75 40.91 168.75 40.76V40.67V40.52C168.75 40.43 168.75 40.34 168.75 40.25V40.19ZM168.42 36.19L148.59 38.8C148.59 39.14 148.67 39.49 148.7 39.8L168.63 38.14C168.63 37.98 168.63 37.83 168.63 37.67C168.63 37.21 168.53 36.75 168.47 36.3L168.42 36.19ZM167.71 32.26L148.22 36.76C148.3 37.09 148.37 37.44 148.43 37.76L168.11 34.2L167.93 33.25L167.87 32.93V32.87L167.81 32.63L167.71 32.26ZM166.62 28.41L147.62 34.77C147.727 35.0967 147.827 35.43 147.92 35.77L167.17 30.33C167.03 29.84 166.88 29.33 166.72 28.87C166.72 28.77 166.65 28.68 166.62 28.58V28.41ZM165.17 24.68L146.9 32.85C147.04 33.17 147.17 33.49 147.3 33.85L165.93 26.58C165.69 25.96 165.43 25.34 165.16 24.73L165.17 24.68ZM163.36 21.11L146 31C146.17 31.3 146.34 31.61 146.49 31.92L164.34 22.92C164.07 22.4 163.8 21.92 163.51 21.37L163.36 21.11ZM161.22 17.74L144.86 29.24C145.06 29.52 145.25 29.81 145.44 30.1L162.33 19.4L162.2 19.2L161.54 18.2L161.27 17.82L161.22 17.74ZM158.77 14.58L143.58 27.58C143.8 27.84 144.02 28.11 144.24 28.39L160 16.14L159.89 15.99L159.76 15.84L158.77 14.58ZM156 11.68L142.11 26.08L142.85 26.82L157.42 13.1C156.96 12.61 156.5 12.1 156.02 11.68H156ZM153 9L140.56 24.7C140.83 24.91 141.1 25.14 141.36 25.37L154.54 10.37L154.31 10.16L153 9ZM149.75 6.67L138.87 23.48C139.16 23.67 139.45 23.86 139.73 24.07L151.42 7.84L151 7.51H150.94L150.43 7.15H150.35L149.8 6.79L149.75 6.67ZM146.3 4.67L137.06 22.41C137.37 22.57 137.67 22.74 137.97 22.91L148.06 5.66L147.63 5.41H147.57C147.17 5.18 146.77 4.97 146.36 4.75L146.3 4.67ZM142.68 3L135.19 21.54L136.14 21.95L144.52 3.79H144.2C143.7 3.56 143.2 3.35 142.68 3.14V3ZM138.9 1.7L133.24 20.88L134.24 21.2L140.83 2.31L139.49 1.87H139.34L138.92 1.74L138.9 1.7ZM135 0.76L131.21 20.39L132.21 20.61L137 1.18H136.77L135.95 0.99H135.72C135.49 0.93 135.27 0.89 135.05 0.85L135 0.76ZM131 0.19L129.17 20.1C129.52 20.1 129.87 20.17 130.17 20.22L133.05 0.42L132.55 0.36H132.34L131.44 0.26H131.33H131.06L131 0.19ZM127 0V20H128.06L129 0C128.59 0 128.19 0 127.78 0L127 0Z" fill="#404040"/>
<path d="M127.07 2C134.92 1.99802 142.594 4.32387 149.122 8.68342C155.65 13.043 160.739 19.2404 163.745 26.4921C166.751 33.7437 167.539 41.7238 166.009 49.4233C164.48 57.1228 160.701 64.1958 155.152 69.748C149.603 75.3001 142.532 79.082 134.833 80.6154C127.134 82.1488 119.154 81.3648 111.901 78.3626C104.647 75.3604 98.4474 70.2748 94.0845 63.7489C89.7217 57.223 87.392 49.5499 87.39 41.7C87.4032 31.1784 91.5874 21.0913 99.0254 13.6495C106.463 6.20777 116.548 2.01852 127.07 2ZM127.07 1.19973e-06C118.825 0.00197905 110.766 2.44848 103.912 7.0302C97.0577 11.6119 91.7157 18.1231 88.5615 25.7405C85.4074 33.358 84.5826 41.7396 86.1916 49.8258C87.8005 57.9119 91.7709 65.3394 97.6007 71.1693C103.431 76.9991 110.858 80.9695 118.944 82.5785C127.03 84.1874 135.412 83.3626 143.029 80.2085C150.647 77.0543 157.158 71.7123 161.74 64.858C166.322 58.0036 168.768 49.9447 168.77 41.7C168.771 36.2235 167.694 30.8004 165.598 25.7405C163.503 20.6807 160.432 16.0832 156.559 12.2107C152.687 8.33825 148.089 5.2667 143.029 3.17155C137.97 1.07639 132.546 -0.00131258 127.07 1.19973e-06Z" fill="#262626"/>
<g opacity="0.06">
<path d="M163.09 41.7C163.09 48.8201 160.979 55.7804 157.023 61.7005C153.067 67.6207 147.445 72.2349 140.867 74.9597C134.288 77.6844 127.05 78.3974 120.067 77.0083C113.083 75.6192 106.669 72.1905 101.634 67.1559C96.5994 62.1212 93.1708 55.7066 91.7817 48.7233C90.3926 41.7399 91.1056 34.5015 93.8303 27.9234C96.5551 21.3453 101.169 15.7228 107.089 11.7671C113.01 7.81138 119.97 5.70001 127.09 5.70001C136.638 5.70001 145.795 9.49286 152.546 16.2442C159.297 22.9955 163.09 32.1522 163.09 41.7Z" fill="white"/>
</g>
<path d="M127.07 69.83C121.506 69.83 116.068 68.1802 111.442 65.0892C106.816 61.9983 103.21 57.605 101.081 52.4649C98.9522 47.3248 98.3951 41.6688 99.4805 36.2121C100.566 30.7554 103.245 25.7431 107.179 21.8091C111.113 17.875 116.125 15.1959 121.582 14.1105C127.039 13.0251 132.695 13.5822 137.835 15.7113C142.975 17.8404 147.368 21.4459 150.459 26.0718C153.55 30.6978 155.2 36.1364 155.2 41.7C155.195 49.1589 152.229 56.3108 146.955 61.5851C141.681 66.8593 134.529 69.8247 127.07 69.83Z" fill="#DF4E68"/>
<path d="M127.07 16.58C132.043 16.5681 136.908 18.0321 141.049 20.7867C145.19 23.5412 148.42 27.4624 150.331 32.0538C152.242 36.6453 152.747 41.7005 151.784 46.5794C150.82 51.4584 148.43 55.9417 144.917 59.4618C141.404 62.9819 136.926 65.3805 132.049 66.3539C127.172 67.3273 122.115 66.8317 117.52 64.9299C112.925 63.0281 108.997 59.8056 106.235 55.6704C103.472 51.5352 101.998 46.6732 102 41.7C102.008 35.0402 104.657 28.6555 109.366 23.9463C114.075 19.2371 120.46 16.588 127.12 16.58M127.12 10.58C120.961 10.5701 114.937 12.3877 109.81 15.8027C104.684 19.2178 100.687 24.0767 98.3231 29.7647C95.9595 35.4527 95.3365 41.714 96.5328 47.7561C97.7291 53.7983 100.691 59.3498 105.044 63.708C109.396 68.0663 114.944 71.0353 120.985 72.2394C127.025 73.4435 133.287 72.8285 138.978 70.4723C144.669 68.1161 149.533 64.1245 152.955 59.0028C156.377 53.8811 158.202 47.8595 158.2 41.7C158.2 37.6124 157.395 33.5649 155.83 29.7886C154.266 26.0123 151.972 22.5812 149.082 19.6913C146.191 16.8014 142.759 14.5093 138.982 12.946C135.205 11.3827 131.158 10.5787 127.07 10.58H127.12Z" fill="#DF4E68"/>
<path d="M83.39 41.7C83.39 49.9475 80.9443 58.0098 76.3623 64.8673C71.7802 71.7248 65.2676 77.0696 57.6479 80.2258C50.0282 83.382 41.6437 84.2077 33.5547 82.5987C25.4657 80.9897 18.0355 77.0182 12.2037 71.1864C6.37181 65.3545 2.40027 57.9243 0.791263 49.8353C-0.817741 41.7463 0.00805831 33.3618 3.16423 25.7421C6.32041 18.1224 11.6652 11.6098 18.5227 7.02772C25.3803 2.44566 33.4425 1.19973e-06 41.69 1.19973e-06C47.1665 -0.00131258 52.5896 1.07639 57.6495 3.17155C62.7093 5.2667 67.3068 8.33825 71.1793 12.2107C75.0518 16.0832 78.1233 20.6807 80.2185 25.7405C82.3136 30.8004 83.3913 36.2235 83.39 41.7Z" fill="#E5E5E5"/>
<path d="M41.69 0H40.43H39.68L40.62 20H41.69V0ZM37.69 0.19H37.52H37.38C36.82 0.25 36.26 0.32 35.71 0.4L38.55 20.19C38.89 20.19 39.24 20.1 39.55 20.07L37.69 0.19ZM33.69 0.76H33.6H33.18C32.7 0.86 32.18 0.96 31.74 1.08L36.47 20.51C36.81 20.43 37.15 20.35 37.47 20.29L33.73 0.76H33.69ZM29.81 1.76L29.01 2H29H28.95H28.9L27.97 2.31L34.57 21.19C34.89 21.08 35.22 20.97 35.57 20.88L29.85 1.71L29.81 1.76ZM26.07 3C25.45 3.25 24.84 3.52 24.24 3.8L32.62 22C32.93 21.85 33.25 21.71 33.62 21.58L26.07 3ZM22.44 4.7C21.85 5.01 21.27 5.33 20.69 5.7L30.78 22.94C31.08 22.76 31.38 22.59 31.69 22.43L22.44 4.7ZM19 6.72C18.44 7.08 17.89 7.45 17.35 7.85L29 24.07C29.29 23.87 29.57 23.67 29.87 23.48L19 6.72ZM15.75 9.05C15.22 9.47 14.75 9.9 14.21 10.34L27.4 25.34C27.66 25.11 27.93 24.89 28.2 24.67L15.75 9.05ZM12.75 11.69C12.46 11.96 12.19 12.24 11.91 12.53L11.48 12.98L25.9 26.82C26.13 26.57 26.38 26.32 26.63 26.08L12.74 11.69H12.75ZM10 14.6H9.87C9.49 15.05 9.12 15.5 8.77 15.96L24.57 28.22C24.7833 27.9533 25.0033 27.6833 25.23 27.41L10 14.6ZM7.55 17.76L7.39 18C7.07 18.46 6.77 18.92 6.47 19.39L23.37 30.09C23.55 29.8 23.75 29.5 23.95 29.22L7.55 17.76ZM5.41 21.14L5 22L4.51 22.93L22.36 31.93C22.52 31.62 22.68 31.31 22.86 31.01L5.41 21.14ZM3.61 24.71C3.54 24.86 3.47 25.01 3.41 25.16V25.22C3.40566 25.2398 3.40566 25.2602 3.41 25.28C3.23 25.7 3.05 26.12 2.89 26.55L21.52 33.81C21.65 33.49 21.78 33.17 21.92 32.81L3.61 24.71ZM2.15 28.43C2.06 28.7 1.98 28.97 1.89 29.24C1.83 29.42 1.78 29.6 1.73 29.79L20.98 35.22C21.0667 34.8867 21.1667 34.5533 21.28 34.22L2.28 27.87L2.15 28.43ZM1.07 32.28C1 32.81 0.83 33.34 0.73 33.87C0.73 34 0.73 34.12 0.66 34.24L20.35 37.79C20.41 37.45 20.48 37.11 20.55 36.79L1.07 32.28ZM0.36 36.22C0.3 36.64 0.25 37.07 0.21 37.5C0.21 37.7 0.21 37.89 0.16 38.09L20.09 39.75C20.09 39.4 20.16 39.05 20.2 38.75L0.36 36.22ZM0 40.2V41.2V41.26V41.5C0 41.63 0 41.77 0 41.9L20 42V41.7C20 41.44 20 41.17 20 40.91L0 40.2ZM20 43L0.07 44.2C0.07 44.77 0.15 45.34 0.21 45.9C0.205083 45.9599 0.205083 46.0201 0.21 46.08L20.09 43.95C20.09 43.61 20.03 43.26 20.01 42.95L20 43ZM20.22 45.08L0.5 48.17C0.58 48.7 0.67 49.22 0.78 49.74V49.9L20.37 45.9C20.31 45.56 20.24 45.22 20.19 44.9L20.22 45.08ZM20.64 47.08L1.27 52.08C1.43 52.73 1.61 53.37 1.81 54.01L21 48.12C20.9 47.79 20.8 47.45 20.72 47.12L20.64 47.08ZM21.25 49.08L2.48 55.91C2.71 56.54 2.95 57.16 3.21 57.78L21.66 50.06C21.53 49.74 21.4 49.42 21.29 49.06L21.25 49.08ZM22.04 50.98L4 59.6L4.1 59.82C4.28 60.19 4.46 60.55 4.65 60.92C4.65 61.03 4.76 61.14 4.82 61.25L22.44 51.79C22.28 51.48 22.12 51.17 21.97 50.86L22.04 50.98ZM23.04 52.81L5.92 63.12L6.21 63.6C6.45 63.98 6.7 64.37 6.95 64.74L23.58 53.64C23.39 53.35 23.2 53.06 23.03 52.76L23.04 52.81ZM24.19 54.54L8.14 66.45L8.36 66.75C8.59 67.05 8.82 67.35 9.06 67.64L24.56 55C24.34 54.73 24.13 54.45 23.92 54.17L24.19 54.54ZM25.51 56.16L10.67 69.55C11.11 70.04 11.57 70.55 12.04 71L26.26 56.94C26.02 56.7 25.77 56.44 25.54 56.18L25.51 56.16ZM27 57.67L13.48 72.39C13.73 72.62 13.98 72.85 14.24 73.07H14.3L14.96 73.64L27.8 58.36C27.53 58.14 27.27 57.9 27.01 57.67H27ZM28.62 59L16.55 75C16.85 75.23 17.16 75.46 17.48 75.68L18.17 76.16L29.46 59.66C29.18 59.46 28.89 59.26 28.62 59.05V59ZM30.34 60.18L19.85 77.18L19.95 77.25C20.45 77.55 20.95 77.85 21.47 78.13L31.14 60.62C30.83 60.45 30.53 60.28 30.24 60.1L30.34 60.18ZM32.16 61.18L23.35 79.18L23.68 79.35H23.84C24.26 79.55 24.68 79.74 25.1 79.92L33.1 61.62C32.78 61.49 32.46 61.34 32.16 61.19V61.18ZM34.06 62L27 80.73C27.62 80.97 28.25 81.18 28.89 81.39L35.01 62.39L34.01 62.05L34.06 62ZM36.06 62.63L30.82 82L31.06 82.06H31.27C31.7633 82.1933 32.2633 82.3133 32.77 82.42L37 62.88C36.66 62.81 36.32 62.73 36 62.64L36.06 62.63ZM38.06 63.07L34.73 82.81C35.23 82.89 35.73 82.97 36.24 83.03L36.71 83.09L39.07 63.23C38.73 63.23 38.38 63.14 38.07 63.08L38.06 63.07ZM40.13 63.32L38.72 83.32H39.13H39.22H40.22H40.76L41.22 63.32C40.87 63.32 40.52 63.32 40.22 63.32H40.13ZM43.29 63.32L42.24 63.37L42.72 83.37H43.28H43.41L44.59 83.31H44.72L43.29 63.31V63.32ZM45.37 63.07C45.03 63.13 44.68 63.18 44.37 63.22L46.74 83.08C47.35 83 47.96 82.92 48.57 82.82H48.72L45.35 63.08L45.37 63.07ZM47.37 62.63C47.04 62.72 46.7 62.8 46.37 62.87L50.64 82.41H50.86H51.07L51.83 82.23H52.19L52.58 82.13L47.38 62.81L47.37 62.63ZM49.37 62L48.37 62.34L54.5 81.34L55.42 81.03H55.61L56.39 80.74L49.33 62H49.37ZM51.28 61.17L50.28 61.61L58.23 80C58.58 79.85 58.93 79.7 59.28 79.53H59.43L60.05 79.24L51.24 61.24L51.28 61.17ZM53.09 60.17C52.8 60.35 52.5 60.53 52.2 60.69L61.86 78.2L62.04 78.1H62.14L63.51 77.3L53.01 60.3L53.09 60.17ZM54.77 59C54.5 59.21 54.21 59.42 53.93 59.61L65.23 76.11L65.98 75.58H66.12L66.72 75.13L54.77 59ZM56.38 57.66C56.12 57.9 55.86 58.13 55.59 58.35L68.41 73.7H68.75L69.75 72.84L56.38 57.66ZM57.85 56.17C57.62 56.43 57.37 56.69 57.13 56.94L71.36 71L72.29 70C72.39 69.88 72.5 69.76 72.61 69.65L57.85 56.17ZM59.17 54.56C58.96 54.83 58.75 55.11 58.53 55.38L74 68C74.21 67.74 74.42 67.48 74.62 67.21C74.73 67.05 74.85 66.9 74.97 66.74L59.17 54.56ZM60.32 52.82C60.15 53.12 59.96 53.41 59.77 53.7L76.4 64.8L76.54 64.59C76.85 64.12 77.15 63.64 77.44 63.16L60.32 52.82ZM61.32 50.99C61.18 51.31 61.02 51.62 60.86 51.92L78.48 61.37L78.75 60.86L79.17 60.03C79.23 59.92 79.28 59.81 79.33 59.7L61.3 51L61.32 50.99ZM62.12 49.09C62 49.41 61.88 49.73 61.75 50.09L80.2 57.8C80.3 57.57 80.39 57.34 80.48 57.11C80.61 56.75 80.75 56.4 80.88 56.05L62.1 49.09H62.12ZM62.73 47.09C62.64 47.42 62.55 47.76 62.45 48.09L81.54 54C81.54 53.86 81.62 53.73 81.67 53.59C81.79 53.19 81.9 52.78 82 52.38L62.63 47.38L62.73 47.09ZM63.14 45.09C63.0933 45.43 63.0333 45.7633 62.96 46.09L82.55 50.09C82.67 49.52 82.77 48.94 82.87 48.37C82.8644 48.2868 82.8644 48.2032 82.87 48.12L63.12 45.09H63.14ZM63.35 43C63.35 43.35 63.3 43.7 63.26 44L83.15 46.13C83.15 45.89 83.15 45.66 83.22 45.42C83.22 45.04 83.28 44.66 83.31 44.28V44.22L63.35 43ZM83.35 40.18L63.35 40.89C63.35 41.16 63.35 41.42 63.35 41.69V42L83.35 42.23V41.8V41.71V41.54V41.2C83.35 41.05 83.35 40.91 83.35 40.76V40.67V40.52C83.345 40.4301 83.345 40.3399 83.35 40.25V40.18ZM83.02 36.18L63.2 38.81C63.2 39.15 63.28 39.5 63.31 39.81L83.24 38.15C83.24 37.99 83.24 37.84 83.24 37.68C83.24 37.22 83.14 36.76 83.09 36.31L83.02 36.18ZM82.3 32.25L62.82 36.75L63.03 37.75L82.71 34.19C82.65 33.88 82.59 33.56 82.52 33.24L82.45 32.92V32.86L82.39 32.62L82.3 32.25ZM81.22 28.4L62.22 34.76C62.3267 35.0867 62.4267 35.42 62.52 35.76L81.77 30.32C81.63 29.83 81.48 29.32 81.32 28.86C81.32 28.76 81.25 28.67 81.22 28.57V28.4ZM79.76 24.67L61.51 32.85C61.65 33.17 61.79 33.49 61.91 33.85L80.54 26.58C80.3 25.96 80.04 25.34 79.77 24.73L79.76 24.67ZM78 21.12L60.58 31C60.75 31.3 60.91 31.61 61.07 31.92L78.91 22.92C78.65 22.4 78.37 21.92 78.09 21.37L78 21.12ZM75.86 17.75L59.46 29.25C59.66 29.53 59.86 29.82 60.04 30.11L76.94 19.41L76.81 19.21C76.6 18.88 76.38 18.55 76.16 18.21L75.9 17.83L75.86 17.75ZM73.41 14.59L58.21 27.59C58.4367 27.85 58.6567 28.12 58.87 28.4L74.67 16.13L74.52 16L74.4 15.85L73.41 14.59ZM70.66 11.68L56.75 26.08C57 26.32 57.25 26.57 57.48 26.82L72 13.1C71.54 12.61 71.07 12.1 70.59 11.68H70.66ZM67.62 9L55.17 24.7C55.45 24.91 55.72 25.14 55.98 25.37L69.16 10.37L68.93 10.16C68.52 9.81 68.1 9.46 67.67 9.16L67.62 9ZM64.38 6.71L53.48 23.48C53.77 23.67 54.06 23.86 54.34 24.07L66 7.84L65.54 7.51L65 7.12L64.45 6.76L64.38 6.71ZM60.93 4.71L51.69 22.43L52.6 22.93L62.68 5.66L62.24 5.41H62.19C61.79 5.18 61.38 4.97 60.98 4.75L60.93 4.71ZM57.29 3L49.81 21.56L50.76 21.97L59.13 3.81H58.82C58.32 3.58 57.82 3.37 57.29 3.16V3ZM53.52 1.7L47.86 20.88L48.86 21.2L55.42 2.31L54.09 1.87H53.94L53.52 1.74V1.7ZM49.63 0.76L45.85 20.39L46.85 20.61L51.59 1.18H51.36L50.54 0.94H50.3L49.63 0.76ZM45.63 0.19L43.79 20.1C44.13 20.1 44.48 20.17 44.79 20.22L47.66 0.42L47.16 0.36H47L46.1 0.26H46H45.73L45.63 0.19ZM41.63 0V20H42.68L43.62 0C43.22 0 42.81 0 42.41 0L41.63 0Z" fill="#BFBFBF"/>
<path d="M41.69 2C49.5395 2 57.2128 4.32753 63.7395 8.68828C70.2663 13.049 75.3535 19.2472 78.3578 26.499C81.3622 33.7508 82.1487 41.7306 80.6181 49.4295C79.0875 57.1283 75.3083 64.2004 69.7586 69.7515C64.2089 75.3027 57.1377 79.0836 49.4393 80.6161C41.7408 82.1487 33.7608 81.3642 26.5082 78.3616C19.2556 75.3591 13.0562 70.2735 8.69383 63.7479C4.33143 57.2222 2.00197 49.5495 2 41.7C2.01322 31.1767 6.19876 21.088 13.6389 13.646C21.0791 6.20396 31.1667 2.01588 41.69 2ZM41.69 1.19973e-06C33.4453 0.00197905 25.3864 2.44848 18.532 7.0302C11.6777 11.6119 6.33572 18.1231 3.18155 25.7405C0.027369 33.358 -0.797389 41.7396 0.811548 49.8258C2.42048 57.9119 6.39087 65.3394 12.2207 71.1693C18.0506 76.9991 25.4781 80.9695 33.5642 82.5785C41.6504 84.1874 50.032 83.3626 57.6494 80.2085C65.2669 77.0543 71.7781 71.7123 76.3598 64.858C80.9415 58.0036 83.388 49.9447 83.39 41.7C83.3913 36.2235 82.3136 30.8004 80.2185 25.7405C78.1233 20.6807 75.0518 16.0832 71.1793 12.2107C67.3068 8.33825 62.7093 5.2667 57.6494 3.17155C52.5896 1.07639 47.1665 -0.00131258 41.69 1.19973e-06Z" fill="#D9D9D9"/>
<g opacity="0.06">
<path d="M77.71 41.7C77.71 48.8201 75.5986 55.7804 71.6429 61.7005C67.6872 67.6207 62.0648 72.2349 55.4866 74.9597C48.9085 77.6844 41.6701 78.3973 34.6868 77.0083C27.7034 75.6192 21.2889 72.1905 16.2542 67.1558C11.2195 62.1212 7.79081 55.7066 6.40174 48.7232C5.01267 41.7399 5.72559 34.5015 8.45034 27.9234C11.1751 21.3453 15.7893 15.7228 21.7095 11.7671C27.6296 7.81136 34.5899 5.7 41.71 5.7C46.4376 5.7 51.1189 6.63116 55.4866 8.44033C59.8543 10.2495 63.8229 12.9012 67.1659 16.2442C70.5088 19.5871 73.1605 23.5557 74.9697 27.9234C76.7788 32.2911 77.71 36.9724 77.71 41.7Z" fill="black"/>
</g>
<path d="M41.69 69.83C36.126 69.832 30.6864 68.1839 26.0591 65.0941C21.4318 62.0043 17.8248 57.6117 15.6941 52.4718C13.5635 47.3319 13.005 41.6756 14.0893 36.2182C15.1736 30.7609 17.8519 25.7477 21.7856 21.8126C25.7192 17.8776 30.7315 15.1975 36.1884 14.1112C41.6454 13.025 47.3019 13.5815 52.4426 15.7103C57.5832 17.8391 61.9771 21.4446 65.0685 26.0708C68.16 30.6969 69.81 36.136 69.81 41.7C69.8021 49.1564 66.8372 56.3052 61.5657 61.5786C56.2942 66.852 49.1464 69.8194 41.69 69.83Z" fill="#DEDEDE"/>
<path d="M41.69 16.58C46.6607 16.58 51.5197 18.0541 55.6525 20.8159C59.7853 23.5776 63.0063 27.503 64.9081 32.0955C66.8098 36.688 67.3069 41.7413 66.3364 46.6163C65.3659 51.4913 62.9715 55.969 59.4561 59.4831C55.9406 62.9972 51.4619 65.3898 46.5865 66.3584C41.7111 67.3269 36.658 66.8278 32.0662 64.9242C27.4745 63.0207 23.5504 59.7981 20.7903 55.6642C18.0302 51.5303 16.558 46.6707 16.56 41.7C16.5679 35.0385 19.2184 28.6522 23.9298 23.9427C28.6411 19.2332 35.0285 16.5853 41.69 16.58ZM41.69 10.58C35.5322 10.578 29.5122 12.4023 24.3913 15.8222C19.2705 19.242 15.2789 24.1038 12.9215 29.7924C10.5642 35.4811 9.94683 41.7412 11.1477 47.7807C12.3485 53.8203 15.3136 59.368 19.6678 63.7222C24.022 68.0764 29.5697 71.0415 35.6093 72.2423C41.6489 73.4432 47.9089 72.8259 53.5976 70.4685C59.2862 68.1111 64.148 64.1195 67.5678 58.9987C70.9877 53.8778 72.812 47.8578 72.81 41.7C72.81 33.4465 69.5313 25.531 63.6952 19.6948C57.859 13.8587 49.9435 10.58 41.69 10.58Z" fill="#E5E5E5"/>
</g>
<defs>
<clipPath id="clip0_517_2">
<rect width="168.77" height="83.38" fill="white"/>
</clipPath>
</defs>
</svg>
